<?xml version="1.0" standalone="no"?>
<!DOCTYPE svg PUBLIC "-//W3C//DTD SVG 20010904//EN"
 "http://www.w3.org/TR/2001/REC-SVG-20010904/DTD/svg10.dtd">
<svg version="1.0" xmlns="http://www.w3.org/2000/svg"
 width="420.000000pt" height="594.000000pt" viewBox="0 0 420.000000 594.000000"
 preserveAspectRatio="xMidYMid meet">

<g transform="translate(0.000000,594.000000) scale(0.100000,-0.100000)"
fill="#000000" stroke="none">
<path d="M2237 5544 c-14 -14 -7 -35 11 -32 9 2 17 10 17 17 0 16 -18 25 -28
15z"/>
<path d="M2236 5120 c-5 -140 -9 -266 -11 -280 -1 -14 -3 -49 -3 -77 -2 -48
-4 -53 -24 -53 -38 0 -52 -15 -45 -48 5 -25 2 -33 -18 -46 -20 -13 -23 -22
-18 -49 11 -59 11 -59 136 -61 129 -1 127 -2 127 72 0 26 -5 35 -21 39 -18 5
-20 11 -16 39 6 36 -5 50 -43 56 -19 2 -25 9 -26 28 -1 14 -4 142 -9 285 -11
369 -20 397 -29 95z"/>
<path d="M2072 4446 c-35 -7 -75 -22 -90 -33 -23 -18 -27 -27 -24 -64 4 -56
12 -64 54 -50 101 33 378 32 479 -3 43 -15 38 -21 55 62 6 28 -30 63 -83 81
-55 19 -313 23 -391 7z"/>
<path d="M2129 4270 c-42 -4 -93 -13 -113 -20 l-38 -12 6 -49 c10 -74 15 -82
45 -74 112 29 269 33 387 10 57 -11 80 -12 85 -4 8 13 22 110 16 115 -1 2 -30
10 -63 18 -74 19 -225 26 -325 16z"/>
<path d="M2100 4094 c-53 -9 -100 -25 -100 -34 0 -14 22 -60 29 -60 4 0 11 10
16 22 6 12 26 31 45 43 30 17 52 20 160 20 113 0 129 -2 162 -23 20 -13 40
-33 44 -44 6 -21 7 -21 20 -3 24 33 17 53 -23 66 -38 11 -306 21 -353 13z"/>
<path d="M2170 4051 c-56 -13 -87 -28 -94 -46 -7 -20 -8 -155 -1 -155 3 0 17
8 32 17 18 12 53 18 118 21 96 4 154 -7 188 -36 16 -14 17 -10 17 64 0 43 -4
84 -8 91 -22 35 -175 62 -252 44z"/>
<path d="M2180 3705 l0 -146 53 7 c101 13 96 5 94 151 l-2 128 -72 3 -73 3 0
-146z"/>
<path d="M2097 3818 c-16 -12 -17 -28 -15 -151 3 -130 4 -137 21 -125 16 12
17 28 15 151 -3 130 -4 137 -21 125z"/>
<path d="M2382 3716 c0 -72 4 -110 13 -123 21 -28 26 -2 23 118 -3 88 -6 104
-20 107 -15 3 -17 -9 -16 -102z"/>
<path d="M2990 3430 c-195 -41 -337 -110 -529 -254 -68 -52 -165 -148 -197
-195 -13 -20 -44 -63 -68 -97 -195 -270 -321 -654 -326 -994 -1 -41 -1 -81 -1
-87 1 -10 67 -13 296 -13 l295 0 0 75 0 75 -220 0 -220 0 0 26 c0 102 62 370
119 511 31 79 86 186 135 261 61 96 165 222 182 222 9 0 39 -24 68 -53 102
-102 116 -190 116 -754 l0 -363 365 0 365 0 0 70 c0 49 -4 70 -12 71 -7 0 -40
1 -73 2 l-60 2 -3 688 -2 687 75 0 75 0 0 70 0 70 -147 -1 c-101 -1 -175 -7
-233 -19z m80 -815 l0 -675 -144 0 -144 0 -4 398 -4 397 -27 82 c-29 87 -73
153 -141 215 -23 20 -39 38 -36 40 133 109 364 215 473 217 l27 1 0 -675z"/>
<path d="M2558 1574 c-5 -4 -8 -43 -8 -86 l0 -78 55 0 55 0 0 41 c0 24 -4 38
-10 34 -5 -3 -10 -17 -10 -31 0 -21 -5 -24 -35 -24 l-34 0 -3 76 c-2 42 -6 72
-10 68z"/>
<path d="M1410 1491 c0 -47 4 -81 10 -81 6 0 10 31 10 74 0 41 -4 78 -10 81
-6 4 -10 -23 -10 -74z"/>
<path d="M2000 1496 c0 -41 5 -78 10 -81 6 -4 10 23 10 74 0 47 -4 81 -10 81
-6 0 -10 -31 -10 -74z"/>
<path d="M3098 1564 c-5 -4 -8 -36 -8 -71 0 -56 -2 -63 -20 -63 -15 0 -20 7
-20 25 0 14 -4 25 -10 25 -5 0 -10 -11 -10 -25 0 -21 -5 -25 -30 -25 -28 0
-30 3 -30 36 0 21 -4 33 -10 29 -5 -3 -10 -19 -10 -36 0 -19 -5 -29 -15 -29
-10 0 -15 10 -15 31 0 17 -4 28 -10 24 -5 -3 -10 -17 -10 -31 0 -15 -6 -24
-15 -24 -9 0 -15 10 -15 26 0 14 -4 23 -10 19 -5 -3 -10 -21 -10 -40 0 -32
-21 -65 -41 -65 -6 0 -20 5 -32 12 -19 10 -20 9 -9 -4 7 -9 21 -18 32 -21 23
-6 60 18 60 39 0 13 28 15 193 14 105 -1 222 -1 260 -1 l67 1 0 40 c0 22 -2
40 -4 40 -20 0 -55 -23 -61 -38 -5 -18 -16 -20 -105 -21 l-99 0 -3 70 c-2 39
-6 67 -10 63z m262 -114 c0 -11 -7 -20 -15 -20 -15 0 -21 21 -8 33 12 13 23 7
23 -13z"/>
<path d="M1668 1549 c-34 -13 -48 -49 -23 -64 35 -20 65 -47 65 -56 0 -6 -34
-9 -82 -7 l-83 3 -3 33 c-4 36 -19 41 -50 13 -32 -27 -29 -59 6 -63 22 -2 27
-7 24 -28 l-2 -25 14 25 c13 23 21 25 108 30 l93 5 -42 46 c-24 25 -43 51 -43
57 0 5 14 15 30 21 17 5 30 12 30 15 0 8 -9 6 -42 -5z m-145 -93 c7 -18 -1
-26 -25 -26 -16 0 -17 3 -8 20 13 23 26 26 33 6z"/>
<path d="M1057 1497 c-3 -8 -1 -20 4 -28 6 -10 9 -7 9 14 0 29 -5 35 -13 14z"/>
<path d="M2281 1488 c-1 -26 1 -27 62 -30 61 -3 62 -3 62 -32 0 -35 -24 -47
-32 -17 -4 17 -13 21 -49 21 -24 0 -44 -4 -44 -10 0 -5 16 -10 36 -10 25 0 42
-7 55 -22 l19 -23 19 23 c13 15 30 22 55 22 35 0 36 1 36 41 0 24 -4 38 -10
34 -5 -3 -10 -17 -10 -31 0 -20 -5 -24 -30 -24 -25 0 -30 4 -30 25 0 24 -2 25
-64 25 -53 0 -65 3 -69 18 -3 10 -5 7 -6 -10z"/>
<path d="M2771 1496 c-9 -10 -8 -15 4 -20 10 -4 15 1 15 14 0 24 -4 25 -19 6z"/>
<path d="M1247 1483 c-4 -3 -7 -17 -7 -30 0 -21 -5 -23 -45 -23 -39 0 -45 3
-45 22 0 32 -14 12 -16 -23 -2 -42 -22 -62 -56 -55 -18 3 -27 2 -23 -4 3 -6
22 -10 41 -10 27 0 37 5 46 25 11 24 14 25 115 25 l103 0 0 36 c0 21 -4 33
-10 29 -5 -3 -10 -15 -10 -26 0 -17 -6 -20 -42 -17 -40 3 -43 5 -41 31 2 28 1
31 -10 20z"/>
<path d="M1850 1449 l0 -40 53 3 52 3 3 38 c2 21 -1 37 -7 37 -6 0 -11 -13
-11 -30 0 -28 -3 -30 -35 -30 -32 0 -35 2 -35 30 0 17 -4 30 -10 30 -5 0 -10
-18 -10 -41z"/>
<path d="M3150 1480 c0 -5 13 -10 28 -10 15 0 33 -5 40 -12 9 -9 12 -9 12 0 0
6 -9 16 -19 22 -25 13 -61 13 -61 0z"/>
<path d="M2070 1462 c0 -6 5 -22 11 -36 10 -20 9 -30 -5 -51 -17 -26 -17 -26
3 -15 26 13 29 81 6 100 -10 8 -15 9 -15 2z"/>
<path d="M2205 1453 c17 -41 17 -64 -1 -85 -19 -21 -19 -21 3 -9 13 6 25 22
28 34 7 27 -10 77 -26 77 -7 0 -8 -7 -4 -17z"/>
<path d="M2625 1350 c-3 -5 -1 -10 4 -10 6 0 11 5 11 10 0 6 -2 10 -4 10 -3 0
-8 -4 -11 -10z"/>
<path d="M1050 1195 c0 -30 5 -55 10 -55 6 0 10 11 10 25 0 30 11 32 28 5 16
-26 38 -25 52 1 12 21 25 18 25 -7 0 -7 5 -14 10 -14 6 0 11 22 13 50 4 61
-16 68 -47 15 -11 -19 -24 -35 -28 -35 -5 0 -17 16 -27 35 -29 53 -46 46 -46
-20z"/>
<path d="M1250 1199 c-32 -53 -33 -74 -2 -46 24 22 80 22 104 0 25 -23 22 -4
-8 51 -34 61 -54 60 -94 -5z m64 15 c10 -26 7 -34 -12 -34 -26 0 -33 10 -21
31 12 23 25 24 33 3z"/>
<path d="M1500 1210 l0 -40 -51 0 c-36 0 -49 -4 -46 -12 6 -17 97 -14 108 4
12 18 11 88 -1 88 -5 0 -10 -18 -10 -40z"/>
<path d="M1552 1198 l3 -53 63 -3 c51 -2 62 0 62 13 0 11 -12 15 -50 15 l-50
0 0 40 c0 29 -4 40 -16 40 -12 0 -14 -10 -12 -52z"/>
<path d="M1704 1213 c3 -21 6 -46 6 -55 0 -10 5 -18 10 -18 6 0 10 25 10 55 0
44 -3 55 -16 55 -14 0 -15 -7 -10 -37z"/>
<path d="M1766 1235 c-12 -33 4 -45 60 -45 71 0 70 -18 -1 -22 -75 -4 -70 -23
6 -23 47 0 64 4 72 17 18 28 -9 48 -64 48 -27 0 -49 5 -49 10 0 6 24 10 54 10
30 0 58 5 61 10 4 6 -20 10 -63 10 -53 0 -71 -4 -76 -15z"/>
<path d="M1980 1195 l0 -55 51 0 c72 0 85 10 85 62 l-1 43 -67 3 -68 3 0 -56z
m110 25 c0 -5 -20 -10 -45 -10 -25 0 -45 5 -45 10 0 6 20 10 45 10 25 0 45 -4
45 -10z m0 -45 c0 -11 -12 -15 -45 -15 -33 0 -45 4 -45 15 0 11 12 15 45 15
33 0 45 -4 45 -15z"/>
<path d="M2168 1205 c-35 -57 -36 -72 -3 -51 31 20 64 20 93 0 35 -24 36 -12
4 42 -38 65 -59 67 -94 9z m66 -16 c-6 -10 -44 -12 -44 -3 0 3 5 15 11 26 11
21 12 21 25 3 7 -10 11 -22 8 -26z"/>
<path d="M2310 1201 c0 -54 16 -77 25 -38 4 13 5 27 3 33 -8 23 11 16 54 -19
26 -21 52 -36 58 -32 5 3 10 28 10 56 0 37 -4 49 -15 49 -10 0 -15 -11 -15
-35 0 -19 -3 -35 -6 -35 -3 0 -22 16 -42 35 -54 51 -72 47 -72 -14z"/>
<path d="M2490 1197 l0 -53 51 -3 c75 -3 108 34 79 90 -9 15 -22 19 -70 19
l-60 0 0 -53z m115 13 c10 -31 -2 -40 -51 -40 -42 0 -44 1 -44 30 0 29 2 30
44 30 36 0 46 -4 51 -20z"/>
<path d="M2671 1199 c-33 -54 -34 -74 -3 -46 23 21 71 22 100 1 30 -20 28 -3
-4 52 -15 25 -33 44 -43 44 -11 0 -31 -21 -50 -51z m63 15 c10 -26 7 -34 -12
-34 -27 0 -32 9 -19 31 14 23 23 24 31 3z"/>
<path d="M2820 1195 c0 -53 13 -74 22 -37 4 15 12 18 36 14 17 -2 37 -10 43
-18 17 -20 31 -17 24 5 -3 11 -1 22 5 26 16 10 12 52 -6 59 -9 3 -40 6 -70 6
l-54 0 0 -55z m115 20 c0 -5 -21 -11 -47 -13 -39 -3 -48 0 -48 13 0 13 9 16
48 13 26 -2 47 -7 47 -13z"/>
<path d="M3025 1225 c-8 -14 -22 -37 -31 -51 -20 -32 -12 -41 18 -20 12 9 34
16 48 16 14 0 36 -7 48 -16 13 -9 25 -14 27 -12 2 2 -10 27 -26 56 -34 58 -60
67 -84 27z m55 -31 c0 -14 -31 -19 -43 -8 -3 4 -2 15 4 26 8 15 13 17 25 7 8
-6 14 -18 14 -25z"/>
<path d="M3134 1228 c9 -13 24 -39 33 -58 l16 -35 8 27 c4 15 17 40 28 54 28
36 18 44 -15 13 l-26 -24 -15 23 c-9 12 -22 22 -30 22 -13 0 -13 -3 1 -22z"/>
<path d="M3255 1200 c-30 -58 -31 -69 -7 -48 20 19 77 18 111 -1 26 -14 26
-15 -8 52 -34 66 -62 65 -96 -3z m69 -11 c-8 -14 -44 -10 -44 4 0 7 6 19 12
25 10 10 15 9 25 -4 7 -9 10 -21 7 -25z"/>
<path d="M1057 1053 c-4 -3 -7 -52 -7 -108 0 -104 7 -125 42 -125 15 0 18 9
18 50 0 28 4 50 9 50 4 0 38 -23 74 -51 59 -45 70 -50 109 -47 l43 3 -72 55
c-40 30 -72 60 -73 66 0 6 27 33 60 59 33 26 60 50 60 52 0 1 -17 3 -38 3 -30
0 -49 -10 -98 -50 -34 -27 -64 -46 -68 -43 -3 4 -6 26 -6 50 0 38 -2 43 -23
43 -13 0 -27 -3 -30 -7z"/>
<path d="M1373 1053 c-9 -3 -13 -33 -13 -98 0 -89 1 -95 26 -114 23 -18 41
-21 119 -21 152 0 175 18 175 142 0 68 -12 98 -40 98 -17 0 -20 -9 -22 -87
l-3 -88 -95 0 -95 0 -5 85 c-5 86 -12 98 -47 83z"/>
<path d="M1766 947 c-36 -62 -66 -117 -66 -120 0 -17 49 -4 70 18 21 22 31 25
101 25 71 0 79 -2 97 -25 19 -24 72 -36 72 -16 0 5 -13 31 -29 58 -16 26 -44
75 -63 108 -32 56 -37 60 -75 63 l-41 3 -66 -114z m134 23 c11 -21 20 -44 20
-50 0 -5 -22 -10 -50 -10 -30 0 -50 4 -50 11 0 16 42 89 52 89 4 0 17 -18 28
-40z"/>
<path d="M2084 1047 c-2 -7 -3 -60 -2 -118 3 -99 4 -104 26 -107 21 -3 22 -1
22 77 0 49 4 81 10 81 6 0 52 -36 103 -80 70 -62 98 -80 117 -78 l25 3 0 115
0 115 -25 0 c-24 0 -25 -2 -28 -77 -2 -43 -5 -78 -8 -78 -4 0 -46 36 -95 80
-88 79 -132 99 -145 67z"/>
<path d="M2447 1054 c-4 -4 -7 -18 -7 -30 0 -21 5 -23 62 -26 l62 -3 -3 -67
c-3 -74 10 -108 39 -108 17 0 20 9 22 91 l3 92 60 1 c57 1 60 2 60 26 l0 25
-146 3 c-80 1 -148 -1 -152 -4z"/>
<path d="M2756 946 c-36 -62 -66 -116 -66 -120 0 -16 50 -3 75 20 26 24 34 26
104 22 63 -2 80 -7 99 -25 22 -23 62 -31 62 -13 0 10 -104 195 -122 218 -6 6
-27 12 -48 12 -38 0 -38 0 -104 -114z m137 20 c14 -25 22 -47 19 -50 -7 -8
-102 -8 -102 -1 0 15 47 95 55 95 2 0 14 -20 28 -44z"/>
<path d="M3074 1047 c-2 -7 -3 -58 -2 -112 2 -79 6 -100 20 -109 26 -16 32 -2
35 76 2 40 5 74 8 76 2 2 46 -32 97 -77 71 -62 99 -81 118 -79 l25 3 0 115 c0
112 -1 115 -22 118 -22 3 -23 0 -23 -72 0 -41 -4 -77 -9 -80 -4 -3 -50 30
-100 74 -91 79 -134 99 -147 67z"/>
<path d="M1416 727 c-21 -15 -25 -60 -6 -82 8 -10 31 -15 66 -15 73 0 79 18 7
22 -55 3 -58 5 -61 30 -3 26 -2 27 53 30 30 2 56 8 58 13 3 16 -95 18 -117 2z"/>
<path d="M1570 684 c0 -40 4 -55 13 -52 14 5 21 50 13 84 -11 43 -26 25 -26
-32z"/>
<path d="M1625 730 c-3 -5 1 -11 9 -11 9 -1 21 -3 26 -4 6 -1 13 -3 18 -4 4 0
7 -17 7 -38 0 -22 5 -38 14 -41 10 -3 12 5 9 37 -3 36 -1 42 19 47 12 3 27 3
34 -1 7 -5 10 -3 7 6 -6 17 -133 25 -143 9z"/>
<path d="M1819 703 c17 -21 31 -46 31 -55 0 -10 5 -18 10 -18 6 0 10 8 10 18
0 9 14 34 31 55 21 26 26 37 15 37 -8 0 -24 -12 -36 -27 l-22 -28 -20 28 c-11
15 -26 27 -35 27 -10 0 -5 -11 16 -37z"/>
<path d="M2001 721 c-25 -25 -26 -39 -5 -69 12 -18 25 -22 69 -22 74 0 80 18
8 22 -55 3 -58 5 -61 30 -3 26 -2 27 53 30 71 4 76 22 8 26 -42 2 -56 -1 -72
-17z"/>
<path d="M2168 729 c-25 -14 -24 -75 1 -89 30 -15 97 -12 115 6 21 21 20 57
-2 77 -21 19 -87 22 -114 6z m106 -35 c10 -26 -13 -44 -56 -44 -40 0 -56 16
-44 45 8 22 92 21 100 -1z"/>
<path d="M2327 733 c-12 -11 -8 -78 5 -91 17 -17 113 -15 127 2 14 17 11 88
-4 84 -5 -2 -10 -19 -10 -38 0 -35 0 -35 -47 -38 l-48 -3 0 45 c0 43 -7 55
-23 39z"/>
<path d="M2507 733 c-4 -3 -7 -28 -7 -55 0 -58 22 -63 30 -7 l5 34 42 -39 c55
-50 75 -44 71 21 -4 60 -28 72 -28 13 l0 -42 -46 41 c-48 42 -56 46 -67 34z"/>
<path d="M2690 720 c-45 -45 -12 -90 68 -90 68 0 67 18 0 22 -49 3 -53 5 -56
31 -3 28 2 30 91 30 9 0 17 6 17 13 0 23 -96 18 -120 -6z"/>
<path d="M2850 685 c0 -62 16 -75 22 -17 4 46 0 72 -13 72 -5 0 -9 -25 -9 -55z"/>
<path d="M2910 685 l0 -55 59 0 c75 0 90 18 19 22 l-53 3 -3 43 c-5 61 -22 52
-22 -13z"/>
</g>
</svg>
